<svg xmlns="http://www.w3.org/2000/svg" viewBox="0 0 200 200">
  <defs>
    <linearGradient id="gradient" x1="0%" y1="0%" x2="100%" y2="100%">
      <stop offset="0%" style="stop-color:#0066ff;stop-opacity:1" />
      <stop offset="100%" style="stop-color:#3300ff;stop-opacity:1" />
    </linearGradient>
  </defs>
  <path d="M100,20 C60,20 40,50 40,80 C40,110 60,140 100,140 C140,140 160,110 160,80 C160,50 140,20 100,20 Z" fill="none" stroke="url(#gradient)" stroke-width="2" />
  <path d="M90,40 C80,45 75,55 75,65 C75,75 80,85 90,90 C100,95 110,90 115,80 C120,70 115,60 105,55 C95,50 85,55 80,65" fill="none" stroke="url(#gradient)" stroke-width="2" />
  <path d="M100,90 C95,100 90,110 85,120 C80,130 75,140 70,150 C65,160 60,170 55,180" fill="none" stroke="url(#gradient)" stroke-width="2" />
  <path d="M100,90 C105,100 110,110 115,120 C120,130 125,140 130,150 C135,160 140,170 145,180" fill="none" stroke="url(#gradient)" stroke-width="2" />
  <path d="M85,60 C90,65 95,70 100,75 C105,80 110,85 115,90" fill="none" stroke="url(#gradient)" stroke-width="2" />
  <path d="M70,100 C75,95 80,90 85,85 C90,80 95,75 100,70" fill="none" stroke="url(#gradient)" stroke-width="2" />
  <text x="50" y="195" font-family="Arial" font-size="12" fill="#0066ff">iLatinHustleFest</text>
</svg>